<svg xmlns="http://www.w3.org/2000/svg" width="920" height="460" viewBox="0 0 920 460" role="img" aria-label="BF16 prefer · per-output cosine_mean vs FP32 (Imagenette1000)">
<style>text{font-family:Arial,Helvetica,sans-serif;fill:#111827}.axis{stroke:#374151;stroke-width:1}.grid{stroke:#e5e7eb;stroke-width:1}.bar-label{font-size:11px;fill:#374151}.legend{font-size:13px}.tick{font-size:12px;fill:#4b5563}.title{font-size:18px;font-weight:700}</style>
<rect x="0" y="0" width="920" height="460" fill="#ffffff"/>
<text class="title" x="78" y="34">BF16 prefer · per-output cosine_mean vs FP32 (Imagenette1000)</text>
<line class="axis" x1="78" y1="356" x2="892" y2="356"/>
<line class="axis" x1="78" y1="62" x2="78" y2="356"/>
<line class="grid" x1="78" y1="356.00" x2="892" y2="356.00"/>
<text class="tick" x="68" y="360.00" text-anchor="end">0.9980</text>
<line class="grid" x1="78" y1="282.50" x2="892" y2="282.50"/>
<text class="tick" x="68" y="286.50" text-anchor="end">0.9985</text>
<line class="grid" x1="78" y1="209.00" x2="892" y2="209.00"/>
<text class="tick" x="68" y="213.00" text-anchor="end">0.9990</text>
<line class="grid" x1="78" y1="135.50" x2="892" y2="135.50"/>
<text class="tick" x="68" y="139.50" text-anchor="end">0.9995</text>
<line class="grid" x1="78" y1="62.00" x2="892" y2="62.00"/>
<text class="tick" x="68" y="66.00" text-anchor="end">1.0000</text>
<rect x="114.75" y="68.84" width="40.00" height="287.16" fill="#2563eb" rx="2"/>
<text class="bar-label" x="134.75" y="64.84" text-anchor="middle">0.99995</text>
<rect x="159.75" y="69.81" width="40.00" height="286.19" fill="#dc2626" rx="2"/>
<text class="bar-label" x="179.75" y="65.81" text-anchor="middle">0.99995</text>
<rect x="204.75" y="70.04" width="40.00" height="285.96" fill="#16a34a" rx="2"/>
<text class="bar-label" x="224.75" y="66.04" text-anchor="middle">0.99995</text>
<text class="tick" x="179.75" y="380" text-anchor="middle">feat_layer_4</text>
<rect x="318.25" y="93.20" width="40.00" height="262.80" fill="#2563eb" rx="2"/>
<text class="bar-label" x="338.25" y="89.20" text-anchor="middle">0.99979</text>
<rect x="363.25" y="96.39" width="40.00" height="259.61" fill="#dc2626" rx="2"/>
<text class="bar-label" x="383.25" y="92.39" text-anchor="middle">0.99977</text>
<rect x="408.25" y="91.40" width="40.00" height="264.60" fill="#16a34a" rx="2"/>
<text class="bar-label" x="428.25" y="87.40" text-anchor="middle">0.99980</text>
<text class="tick" x="383.25" y="380" text-anchor="middle">feat_layer_12</text>
<rect x="521.75" y="153.56" width="40.00" height="202.44" fill="#2563eb" rx="2"/>
<text class="bar-label" x="541.75" y="149.56" text-anchor="middle">0.99938</text>
<rect x="566.75" y="145.43" width="40.00" height="210.57" fill="#dc2626" rx="2"/>
<text class="bar-label" x="586.75" y="141.43" text-anchor="middle">0.99943</text>
<rect x="611.75" y="112.78" width="40.00" height="243.22" fill="#16a34a" rx="2"/>
<text class="bar-label" x="631.75" y="108.78" text-anchor="middle">0.99965</text>
<text class="tick" x="586.75" y="380" text-anchor="middle">feat_layer_16</text>
<rect x="725.25" y="190.40" width="40.00" height="165.60" fill="#2563eb" rx="2"/>
<text class="bar-label" x="745.25" y="186.40" text-anchor="middle">0.99913</text>
<rect x="770.25" y="156.15" width="40.00" height="199.85" fill="#dc2626" rx="2"/>
<text class="bar-label" x="790.25" y="152.15" text-anchor="middle">0.99936</text>
<rect x="815.25" y="103.05" width="40.00" height="252.95" fill="#16a34a" rx="2"/>
<text class="bar-label" x="835.25" y="99.05" text-anchor="middle">0.99972</text>
<text class="tick" x="790.25" y="380" text-anchor="middle">feat_layer_20</text>
<text class="tick" x="485.00" y="444" text-anchor="middle">Output binding</text>
<text class="tick" transform="translate(18 209.00) rotate(-90)" text-anchor="middle">Cosine similarity (cosine_mean)</text>
<rect x="78" y="377" width="12" height="12" fill="#2563eb"/>
<text class="legend" x="96" y="388">R224 (224px)</text>
<rect x="278" y="377" width="12" height="12" fill="#dc2626"/>
<text class="legend" x="296" y="388">R336 (336px)</text>
<rect x="478" y="377" width="12" height="12" fill="#16a34a"/>
<text class="legend" x="496" y="388">R518 (518px)</text>
</svg>
