<svg xmlns="http://www.w3.org/2000/svg" width="920" height="460" viewBox="0 0 920 460" role="img" aria-label="Locked trtexec INT8 latency speedup vs FP32">
<style>text{font-family:Arial,Helvetica,sans-serif;fill:#111827}.axis{stroke:#374151;stroke-width:1}.grid{stroke:#e5e7eb;stroke-width:1}.bar-label{font-size:12px;fill:#374151}.legend{font-size:13px}.tick{font-size:12px;fill:#4b5563}.title{font-size:20px;font-weight:700}</style>
<rect x="0" y="0" width="920" height="460" fill="#ffffff"/>
<text class="title" x="76" y="34">Locked trtexec INT8 latency speedup vs FP32</text>
<line class="axis" x1="76" y1="356" x2="892" y2="356"/>
<line class="axis" x1="76" y1="62" x2="76" y2="356"/>
<line class="grid" x1="76" y1="356.00" x2="892" y2="356.00"/>
<text class="tick" x="66" y="360.00" text-anchor="end">0.0x</text>
<line class="grid" x1="76" y1="282.50" x2="892" y2="282.50"/>
<text class="tick" x="66" y="286.50" text-anchor="end">0.3x</text>
<line class="grid" x1="76" y1="209.00" x2="892" y2="209.00"/>
<text class="tick" x="66" y="213.00" text-anchor="end">0.6x</text>
<line class="grid" x1="76" y1="135.50" x2="892" y2="135.50"/>
<text class="tick" x="66" y="139.50" text-anchor="end">0.9x</text>
<line class="grid" x1="76" y1="62.00" x2="892" y2="62.00"/>
<text class="tick" x="66" y="66.00" text-anchor="end">1.2x</text>
<rect x="156.00" y="78.85" width="34.00" height="277.15" fill="#2563eb" rx="2"/>
<text class="bar-label" x="173.00" y="72.85" text-anchor="middle">1.18x</text>
<rect x="195.00" y="108.10" width="34.00" height="247.90" fill="#dc2626" rx="2"/>
<text class="bar-label" x="212.00" y="102.10" text-anchor="middle">1.05x</text>
<rect x="234.00" y="110.81" width="34.00" height="245.19" fill="#16a34a" rx="2"/>
<text class="bar-label" x="251.00" y="104.81" text-anchor="middle">1.04x</text>
<text class="tick" x="212.00" y="380" text-anchor="middle">B1</text>
<rect x="428.00" y="68.41" width="34.00" height="287.59" fill="#2563eb" rx="2"/>
<text class="bar-label" x="445.00" y="62.41" text-anchor="middle">1.22x</text>
<rect x="467.00" y="104.56" width="34.00" height="251.44" fill="#dc2626" rx="2"/>
<text class="bar-label" x="484.00" y="98.56" text-anchor="middle">1.07x</text>
<rect x="506.00" y="109.41" width="34.00" height="246.59" fill="#16a34a" rx="2"/>
<text class="bar-label" x="523.00" y="103.41" text-anchor="middle">1.05x</text>
<text class="tick" x="484.00" y="380" text-anchor="middle">B8</text>
<rect x="700.00" y="68.67" width="34.00" height="287.33" fill="#2563eb" rx="2"/>
<text class="bar-label" x="717.00" y="62.67" text-anchor="middle">1.22x</text>
<rect x="739.00" y="106.94" width="34.00" height="249.06" fill="#dc2626" rx="2"/>
<text class="bar-label" x="756.00" y="100.94" text-anchor="middle">1.06x</text>
<rect x="778.00" y="112.41" width="34.00" height="243.59" fill="#16a34a" rx="2"/>
<text class="bar-label" x="795.00" y="106.41" text-anchor="middle">1.04x</text>
<text class="tick" x="756.00" y="380" text-anchor="middle">B32</text>
<text class="tick" x="484.00" y="444" text-anchor="middle">Batch size</text>
<text class="tick" transform="translate(18 209.00) rotate(-90)" text-anchor="middle">Latency speedup</text>
<rect x="76" y="377" width="12" height="12" fill="#2563eb"/>
<text class="legend" x="94" y="388">INT8 ModelOpt MatMul layers16-19</text>
<rect x="336" y="377" width="12" height="12" fill="#dc2626"/>
<text class="legend" x="354" y="388">INT8 ModelOpt MatMul layer19</text>
<rect x="596" y="377" width="12" height="12" fill="#16a34a"/>
<text class="legend" x="614" y="388">INT8 ModelOpt MatMul layer19 attention</text>
</svg>
