<svg xmlns="http://www.w3.org/2000/svg" width="920" height="460" viewBox="0 0 920 460" role="img" aria-label="C++ runtime latency speedup vs FP32">
<style>text{font-family:Arial,Helvetica,sans-serif;fill:#111827}.axis{stroke:#374151;stroke-width:1}.grid{stroke:#e5e7eb;stroke-width:1}.bar-label{font-size:12px;fill:#374151}.legend{font-size:13px}.tick{font-size:12px;fill:#4b5563}.title{font-size:20px;font-weight:700}</style>
<rect x="0" y="0" width="920" height="460" fill="#ffffff"/>
<text class="title" x="76" y="34">C++ runtime latency speedup vs FP32</text>
<line class="axis" x1="76" y1="356" x2="892" y2="356"/>
<line class="axis" x1="76" y1="62" x2="76" y2="356"/>
<line class="grid" x1="76" y1="356.00" x2="892" y2="356.00"/>
<text class="tick" x="66" y="360.00" text-anchor="end">0.0x</text>
<line class="grid" x1="76" y1="282.50" x2="892" y2="282.50"/>
<text class="tick" x="66" y="286.50" text-anchor="end">1.0x</text>
<line class="grid" x1="76" y1="209.00" x2="892" y2="209.00"/>
<text class="tick" x="66" y="213.00" text-anchor="end">2.0x</text>
<line class="grid" x1="76" y1="135.50" x2="892" y2="135.50"/>
<text class="tick" x="66" y="139.50" text-anchor="end">3.0x</text>
<line class="grid" x1="76" y1="62.00" x2="892" y2="62.00"/>
<text class="tick" x="66" y="66.00" text-anchor="end">4.0x</text>
<rect x="90.50" y="189.05" width="14.20" height="166.95" fill="#2563eb" rx="2"/>
<text class="bar-label" x="97.60" y="183.05" text-anchor="middle">2.27x</text>
<rect x="109.70" y="270.15" width="14.20" height="85.85" fill="#dc2626" rx="2"/>
<text class="bar-label" x="116.80" y="264.15" text-anchor="middle">1.17x</text>
<rect x="128.90" y="277.44" width="14.20" height="78.56" fill="#16a34a" rx="2"/>
<text class="bar-label" x="136.00" y="271.44" text-anchor="middle">1.07x</text>
<text class="tick" x="116.80" y="380" text-anchor="middle">R224 B1</text>
<rect x="172.10" y="174.68" width="14.20" height="181.32" fill="#2563eb" rx="2"/>
<text class="bar-label" x="179.20" y="168.68" text-anchor="middle">2.47x</text>
<rect x="191.30" y="265.67" width="14.20" height="90.33" fill="#dc2626" rx="2"/>
<text class="bar-label" x="198.40" y="259.67" text-anchor="middle">1.23x</text>
<rect x="210.50" y="276.94" width="14.20" height="79.06" fill="#16a34a" rx="2"/>
<text class="bar-label" x="217.60" y="270.94" text-anchor="middle">1.08x</text>
<text class="tick" x="198.40" y="380" text-anchor="middle">R224 B8</text>
<rect x="253.70" y="147.93" width="14.20" height="208.07" fill="#2563eb" rx="2"/>
<text class="bar-label" x="260.80" y="141.93" text-anchor="middle">2.83x</text>
<rect x="272.90" y="266.33" width="14.20" height="89.67" fill="#dc2626" rx="2"/>
<text class="bar-label" x="280.00" y="260.33" text-anchor="middle">1.22x</text>
<rect x="292.10" y="277.89" width="14.20" height="78.11" fill="#16a34a" rx="2"/>
<text class="bar-label" x="299.20" y="271.89" text-anchor="middle">1.06x</text>
<text class="tick" x="280.00" y="380" text-anchor="middle">R224 B32</text>
<rect x="335.30" y="170.16" width="14.20" height="185.84" fill="#2563eb" rx="2"/>
<text class="bar-label" x="342.40" y="164.16" text-anchor="middle">2.53x</text>
<text class="tick" x="361.60" y="380" text-anchor="middle">R336 B1</text>
<rect x="416.90" y="164.95" width="14.20" height="191.05" fill="#2563eb" rx="2"/>
<text class="bar-label" x="424.00" y="158.95" text-anchor="middle">2.60x</text>
<text class="tick" x="443.20" y="380" text-anchor="middle">R336 B4</text>
<rect x="498.50" y="147.16" width="14.20" height="208.84" fill="#2563eb" rx="2"/>
<text class="bar-label" x="505.60" y="141.16" text-anchor="middle">2.84x</text>
<text class="tick" x="524.80" y="380" text-anchor="middle">R336 B8</text>
<rect x="580.10" y="148.83" width="14.20" height="207.17" fill="#2563eb" rx="2"/>
<text class="bar-label" x="587.20" y="142.83" text-anchor="middle">2.82x</text>
<text class="tick" x="606.40" y="380" text-anchor="middle">R518 B1</text>
<rect x="661.70" y="129.29" width="14.20" height="226.71" fill="#2563eb" rx="2"/>
<text class="bar-label" x="668.80" y="123.29" text-anchor="middle">3.08x</text>
<text class="tick" x="688.00" y="380" text-anchor="middle">R518 B2</text>
<rect x="743.30" y="113.74" width="14.20" height="242.26" fill="#2563eb" rx="2"/>
<text class="bar-label" x="750.40" y="107.74" text-anchor="middle">3.30x</text>
<text class="tick" x="769.60" y="380" text-anchor="middle">R518 B4</text>
<rect x="824.90" y="106.36" width="14.20" height="249.64" fill="#2563eb" rx="2"/>
<text class="bar-label" x="832.00" y="100.36" text-anchor="middle">3.40x</text>
<text class="tick" x="851.20" y="380" text-anchor="middle">R518 B8</text>
<text class="tick" x="484.00" y="444" text-anchor="middle">Batch size</text>
<text class="tick" transform="translate(18 209.00) rotate(-90)" text-anchor="middle">Latency speedup</text>
<rect x="76" y="377" width="12" height="12" fill="#2563eb"/>
<text class="legend" x="94" y="388">BF16-prefer</text>
<rect x="336" y="377" width="12" height="12" fill="#dc2626"/>
<text class="legend" x="354" y="388">INT8 ModelOpt MatMul layers16-19</text>
<rect x="596" y="377" width="12" height="12" fill="#16a34a"/>
<text class="legend" x="614" y="388">INT8 ModelOpt MatMul layer19</text>
</svg>
