<svg xmlns="http://www.w3.org/2000/svg" width="920" height="460" viewBox="0 0 920 460" role="img" aria-label="Locked trtexec latency speedup vs FP32">
<style>text{font-family:Arial,Helvetica,sans-serif;fill:#111827}.axis{stroke:#374151;stroke-width:1}.grid{stroke:#e5e7eb;stroke-width:1}.bar-label{font-size:12px;fill:#374151}.legend{font-size:13px}.tick{font-size:12px;fill:#4b5563}.title{font-size:20px;font-weight:700}</style>
<rect x="0" y="0" width="920" height="460" fill="#ffffff"/>
<text class="title" x="76" y="34">Locked trtexec latency speedup vs FP32</text>
<line class="axis" x1="76" y1="356" x2="892" y2="356"/>
<line class="axis" x1="76" y1="62" x2="76" y2="356"/>
<line class="grid" x1="76" y1="356.00" x2="892" y2="356.00"/>
<text class="tick" x="66" y="360.00" text-anchor="end">0.0x</text>
<line class="grid" x1="76" y1="282.50" x2="892" y2="282.50"/>
<text class="tick" x="66" y="286.50" text-anchor="end">1.0x</text>
<line class="grid" x1="76" y1="209.00" x2="892" y2="209.00"/>
<text class="tick" x="66" y="213.00" text-anchor="end">2.0x</text>
<line class="grid" x1="76" y1="135.50" x2="892" y2="135.50"/>
<text class="tick" x="66" y="139.50" text-anchor="end">3.0x</text>
<line class="grid" x1="76" y1="62.00" x2="892" y2="62.00"/>
<text class="tick" x="66" y="66.00" text-anchor="end">4.0x</text>
<rect x="93.00" y="175.65" width="34.00" height="180.35" fill="#2563eb" rx="2"/>
<text class="bar-label" x="110.00" y="169.65" text-anchor="middle">2.45x</text>
<text class="tick" x="110.00" y="380" text-anchor="middle">R224 B1</text>
<rect x="161.00" y="168.53" width="34.00" height="187.47" fill="#2563eb" rx="2"/>
<text class="bar-label" x="178.00" y="162.53" text-anchor="middle">2.55x</text>
<text class="tick" x="178.00" y="380" text-anchor="middle">R224 B4</text>
<rect x="229.00" y="149.38" width="34.00" height="206.62" fill="#2563eb" rx="2"/>
<text class="bar-label" x="246.00" y="143.38" text-anchor="middle">2.81x</text>
<text class="tick" x="246.00" y="380" text-anchor="middle">R224 B8</text>
<rect x="297.00" y="129.91" width="34.00" height="226.09" fill="#2563eb" rx="2"/>
<text class="bar-label" x="314.00" y="123.91" text-anchor="middle">3.08x</text>
<text class="tick" x="314.00" y="380" text-anchor="middle">R224 B16</text>
<rect x="365.00" y="117.42" width="34.00" height="238.58" fill="#2563eb" rx="2"/>
<text class="bar-label" x="382.00" y="111.42" text-anchor="middle">3.25x</text>
<text class="tick" x="382.00" y="380" text-anchor="middle">R224 B32</text>
<rect x="433.00" y="150.01" width="34.00" height="205.99" fill="#2563eb" rx="2"/>
<text class="bar-label" x="450.00" y="144.01" text-anchor="middle">2.80x</text>
<text class="tick" x="450.00" y="380" text-anchor="middle">R336 B1</text>
<rect x="501.00" y="138.34" width="34.00" height="217.66" fill="#2563eb" rx="2"/>
<text class="bar-label" x="518.00" y="132.34" text-anchor="middle">2.96x</text>
<text class="tick" x="518.00" y="380" text-anchor="middle">R336 B4</text>
<rect x="569.00" y="116.96" width="34.00" height="239.04" fill="#2563eb" rx="2"/>
<text class="bar-label" x="586.00" y="110.96" text-anchor="middle">3.25x</text>
<text class="tick" x="586.00" y="380" text-anchor="middle">R336 B8</text>
<rect x="637.00" y="126.72" width="34.00" height="229.28" fill="#2563eb" rx="2"/>
<text class="bar-label" x="654.00" y="120.72" text-anchor="middle">3.12x</text>
<text class="tick" x="654.00" y="380" text-anchor="middle">R518 B1</text>
<rect x="705.00" y="99.11" width="34.00" height="256.89" fill="#2563eb" rx="2"/>
<text class="bar-label" x="722.00" y="93.11" text-anchor="middle">3.50x</text>
<text class="tick" x="722.00" y="380" text-anchor="middle">R518 B2</text>
<rect x="773.00" y="79.47" width="34.00" height="276.53" fill="#2563eb" rx="2"/>
<text class="bar-label" x="790.00" y="73.47" text-anchor="middle">3.76x</text>
<text class="tick" x="790.00" y="380" text-anchor="middle">R518 B4</text>
<rect x="841.00" y="71.99" width="34.00" height="284.01" fill="#2563eb" rx="2"/>
<text class="bar-label" x="858.00" y="65.99" text-anchor="middle">3.86x</text>
<text class="tick" x="858.00" y="380" text-anchor="middle">R518 B8</text>
<text class="tick" x="484.00" y="444" text-anchor="middle">Batch size</text>
<text class="tick" transform="translate(18 209.00) rotate(-90)" text-anchor="middle">Latency speedup</text>
<rect x="76" y="377" width="12" height="12" fill="#2563eb"/>
<text class="legend" x="94" y="388">BF16-prefer</text>
</svg>
